<svg xmlns="http://www.w3.org/2000/svg" xmlns:xlink="http://www.w3.org/1999/xlink" xml:space="preserve" viewBox="0 0 500 500"><path d="M0 0h500v500H0z" style="fill:#fff"/><ellipse cx="246.17" cy="424.147" rx="188.517" ry="19.039" style="fill:#edf0fc"/><path d="M153.514 361.369c-6.277.044-3.285 20.4-3.285 20.4s-9.325-22.024-16.498-22.816-.874 18.415-.874 18.415-18.642-20.876-23.46-19.65 4.011 12.872 4.011 12.872-30.912-15.548-33.645-9.647c-2.732 5.901 29.121 19.416 29.121 19.416s-14.592.801-12.41 5.269c2.181 4.467 30.16 5.179 30.16 5.179s-18.722 7.621-13.477 12.579c5.244 4.958 28.071-2.178 28.071-2.178s-17.459 10.886-13.432 15.702 40.963-14.757 40.963-14.757-8.967-40.829-15.245-40.784" style="fill:#eb725f"/><path d="m155.502 377.739 1.836 7.125c.596 2.379 1.275 4.736 1.913 7.103l1.687 6.166-5.79-2.773-9.461-4.443c-1.102-2.91-2.205-5.82-3.391-8.699l-1.815-4.4c-.645-1.452-1.252-2.918-1.929-4.357.432 1.531.934 3.036 1.399 4.555l1.513 4.512c.868 2.581 1.801 5.138 2.74 7.692l-11.402-5.354-6.242-2.849c-1.226-2.06-2.455-4.119-3.758-6.134l-2.015-3.109c-.708-1.015-1.382-2.05-2.12-3.047.512 1.13 1.089 2.222 1.632 3.334l1.737 3.272a163 163 0 0 0 2.721 4.86l-14.413-6.578c-7.506-3.374-15.02-6.73-22.588-9.971 7.367 3.674 14.787 7.233 22.216 10.775l14.486 6.804a164 164 0 0 0-5.671 1.129c-2.419.523-4.835 1.066-7.229 1.733 2.477-.197 4.932-.52 7.384-.861 2.446-.327 4.877-.743 7.307-1.16l6.069 2.851 11.528 5.263c-2.596.962-5.19 1.93-7.759 2.965-2.959 1.178-5.911 2.374-8.819 3.69 3.072-.867 6.101-1.853 9.123-2.857 3.001-.983 5.971-2.051 8.941-3.119l9.444 4.311 5.865 2.623-5.817 2.74c-2.224 1.058-4.466 2.078-6.672 3.176-4.432 2.151-8.856 4.32-13.227 6.604 4.571-1.85 9.089-3.816 13.599-5.799 2.265-.97 4.494-2.017 6.741-3.026l6.728-3.053.04-.018 4.012 1.795c3.774 1.642 7.531 3.319 11.32 4.929-3.678-1.848-7.389-3.628-11.082-5.444l-3.964-1.899-.013-.044-2.042-7.067c-.69-2.353-1.339-4.718-2.07-7.059l-2.147-7.038c-.756-2.335-1.474-4.68-2.264-7.005.537 2.394 1.147 4.769 1.719 7.156" style="fill:#f9ab43"/><g style="opacity:.1"><path d="M110.02 368.949c-8.093-3.828-28.083-12.7-30.256-8.006-.845 1.825 1.621 4.378 5.426 7.034 7.16-1.301 15.73-1.002 24.83.972M132.786 377.144c14.652 7.464 25.601 17.779 30.445 27.839 3.351-1.677 5.529-2.83 5.529-2.83s-8.967-40.828-15.245-40.784-3.285 20.4-3.285 20.4-9.325-22.024-16.498-22.816c-6.718-.742-1.621 16.055-.946 18.191M112.67 369.571a94.6 94.6 0 0 1 14.616 4.978c1.8.78 3.551 1.606 5.256 2.469-2.43-2.686-18.69-20.433-23.144-19.299-3.945 1.003 1.256 8.989 3.272 11.852" style="fill:#0046a0"/></g><path d="M375.85 363.891c.642-6.245-19.919-5.495-19.919-5.495s22.911-6.862 24.483-13.905c1.572-7.044-18.209-2.882-18.209-2.882s22.789-16.248 22.096-21.171c-.692-4.923-13.233 2.579-13.233 2.579s18.835-29.027 13.267-32.388c-5.567-3.361-22.483 26.824-22.483 26.824s.799-14.592-3.88-12.912-8.445 29.413-8.445 29.413-5.529-19.443-11.03-14.772-.904 28.141-.904 28.141-8.912-18.545-14.139-15.068 10.191 42.331 10.191 42.331 41.562-4.45 42.205-10.695" style="fill:#eb725f"/><path d="m359.361 364.077-7.283 1.047c-2.43.333-4.847.749-7.27 1.125l-6.313 1.003 3.39-5.452 5.451-8.919c3.014-.777 6.026-1.556 9.018-2.42l4.572-1.323c1.513-.482 3.037-.926 4.542-1.441-1.569.262-3.12.597-4.681.893l-4.651 1.011c-2.66.58-5.304 1.228-7.945 1.883l6.569-10.748 3.514-5.893c2.182-.994 4.362-1.99 6.508-3.065l3.311-1.663c1.086-.593 2.189-1.149 3.261-1.774-1.179.386-2.328.84-3.493 1.257l-3.443 1.368a159 159 0 0 0-5.128 2.173l8.115-13.608c4.174-7.092 8.332-14.195 12.381-21.362-4.457 6.921-8.806 13.908-13.139 20.905l-8.347 13.655a164 164 0 0 0-.502-5.76c-.256-2.462-.531-4.923-.932-7.375-.075 2.484-.023 4.96.048 7.434.058 2.467.206 4.928.354 7.39l-3.497 5.721-6.492 10.884c-.672-2.686-1.351-5.37-2.099-8.037-.848-3.07-1.714-6.135-2.703-9.17.525 3.149 1.175 6.267 1.842 9.381.65 3.091 1.386 6.16 2.123 9.229l-5.318 8.916-3.249 5.543-2.088-6.082c-.808-2.327-1.578-4.666-2.427-6.979-1.654-4.641-3.326-9.275-5.119-13.869 1.34 4.746 2.8 9.452 4.278 14.151.717 2.357 1.513 4.688 2.271 7.031l2.3 7.022.014.042-2.222 3.792c-2.044 3.572-4.123 7.123-6.137 10.713 2.239-3.454 4.414-6.948 6.623-10.42l2.321-3.732.046-.008 7.248-1.257c2.414-.428 4.836-.815 7.243-1.286l7.23-1.365c2.403-.496 4.813-.954 7.21-1.484-2.443.269-4.871.616-7.305.923" style="fill:#f9ab43"/><g style="opacity:.1"><path d="M373.07 319.828c4.69-7.626 15.694-26.526 11.266-29.199-1.722-1.039-4.529 1.133-7.586 4.625.511 7.259-.723 15.745-3.68 24.574M362.435 341.562c-9.021 13.749-20.471 23.504-31 27.219 1.3 3.514 2.209 5.805 2.209 5.805s41.564-4.45 42.206-10.695-19.919-5.495-19.919-5.495 22.911-6.862 24.483-13.905c1.471-6.596-15.782-3.366-17.979-2.929M372.162 322.395a94.6 94.6 0 0 1-6.546 13.984 97 97 0 0 1-3.029 4.954c2.936-2.122 22.354-16.344 21.714-20.895-.567-4.031-9.073.266-12.139 1.957" style="fill:#0046a0"/></g><path d="M98.485 301.004c1.132 2.607 2.545 5.113 3.984 7.559 3.599 6.12 7.782 11.897 12.428 17.264 6.347 7.333 13.622 13.869 21.711 19.229 9.669 6.408 20.489 11.017 31.834 13.454 14.038 3.015 28.585 2.662 42.644-.033 2.043-.392 4.076-.834 6.099-1.318.629-.15.309-1.105-.318-.955-14.364 3.432-29.355 4.571-43.974 2.13a92.1 92.1 0 0 1-32.696-12.185c-8.388-5.106-15.952-11.513-22.57-18.756a116.5 116.5 0 0 1-13.312-17.708c-1.767-2.886-3.338-5.998-4.816-8.866q-.032-.065-.059-.132c-.255-.59-1.214-.279-.955.317" style="fill:#6e7fdd"/><path d="M103.685 310.575c-2.485-1.521-4.179-3.37-5.674-5.301a28.6 28.6 0 0 1-3.525-6.191 28.2 28.2 0 0 1-1.897-6.866c-.311-2.422-.417-4.928.273-7.765 2.494 1.517 4.191 3.365 5.685 5.296a28.2 28.2 0 0 1 3.515 6.195 28.7 28.7 0 0 1 1.887 6.87c.307 2.424.417 4.929-.264 7.762" style="fill:#6e7fdd"/><path d="M93.794 286.704c.855 1.738 1.649 3.501 2.433 5.268.786 1.766 1.521 3.554 2.285 5.329.718 1.795 1.46 3.579 2.155 5.383s1.381 3.612 2.005 5.445c-.856-1.737-1.649-3.501-2.434-5.267-.784-1.767-1.522-3.553-2.283-5.33-.717-1.795-1.461-3.579-2.155-5.383-.695-1.804-1.381-3.612-2.006-5.445" style="fill:#0046a0"/><path d="M98.546 289.748c-1.493-1.932-3.191-3.779-5.685-5.296q-.134.554-.229 1.092c1.491 1.204 2.668 2.538 3.734 3.918a28.2 28.2 0 0 1 3.515 6.195 28.7 28.7 0 0 1 1.887 6.87c.268 2.104.384 4.271-.035 6.659.597.485 1.239.951 1.952 1.387.681-2.833.571-5.338.262-7.76a28.6 28.6 0 0 0-1.887-6.87 28.2 28.2 0 0 0-3.514-6.195" style="opacity:.1;fill:#0046a0"/><path d="M108.874 318.059c-1.572-2.453-2.29-4.855-2.794-7.245a28.6 28.6 0 0 1-.472-7.109 28.2 28.2 0 0 1 1.288-7.006c.777-2.315 1.774-4.617 3.632-6.868 1.582 2.453 2.304 4.856 2.805 7.246.461 2.387.605 4.756.461 7.108a28.7 28.7 0 0 1-1.299 7.005c-.779 2.315-1.773 4.617-3.621 6.869" style="fill:#6e7fdd"/><path d="M110.386 292.264c.011 1.937-.044 3.869-.108 5.801-.063 1.932-.181 3.861-.269 5.792-.137 1.928-.247 3.858-.408 5.784-.162 1.927-.333 3.853-.571 5.775-.012-1.937.043-3.87.107-5.802.065-1.932.18-3.861.27-5.792.138-1.928.247-3.858.409-5.784s.332-3.852.57-5.774" style="fill:#0046a0"/><path d="M113.334 297.077c-.501-2.39-1.223-4.792-2.805-7.246q-.362.44-.682.883c.816 1.734 1.293 3.448 1.651 5.155.461 2.387.605 4.756.461 7.108a28.7 28.7 0 0 1-1.299 7.005c-.677 2.01-1.517 4.011-2.936 5.977.326.697.7 1.396 1.151 2.1 1.848-2.252 2.842-4.554 3.621-6.869a28.7 28.7 0 0 0 1.299-7.005 28.2 28.2 0 0 0-.461-7.108" style="opacity:.1;fill:#0046a0"/><path d="M108.697 317.577c-2.69 1.117-5.182 1.402-7.623 1.478a28.6 28.6 0 0 1-7.081-.785 28.2 28.2 0 0 1-6.671-2.498c-2.143-1.171-4.233-2.558-6.124-4.782 2.693-1.127 5.185-1.415 7.626-1.489 2.431-.035 4.789.24 7.079.795a28.7 28.7 0 0 1 6.668 2.509c2.141 1.174 4.233 2.557 6.126 4.772" style="fill:#6e7fdd"/><path d="M83.569 311.557c1.909.329 3.802.723 5.692 1.126s3.769.857 5.655 1.282c1.874.473 3.754.921 5.622 1.418 1.868.498 3.734 1.004 5.584 1.577-1.909-.328-3.802-.722-5.693-1.125-1.891-.404-3.77-.856-5.655-1.283-1.874-.475-3.754-.921-5.622-1.419s-3.733-1.005-5.583-1.576" style="fill:#0046a0"/><path d="M88.824 309.5c-2.441.073-4.933.362-7.626 1.489q.37.434.749.827c1.85-.499 3.621-.668 5.365-.72 2.431-.035 4.789.24 7.079.795a28.7 28.7 0 0 1 6.668 2.509c1.86 1.019 3.682 2.198 5.369 3.94a18 18 0 0 0 2.27-.765c-1.893-2.215-3.984-3.598-6.126-4.772a28.7 28.7 0 0 0-6.668-2.509 28.3 28.3 0 0 0-7.08-.794" style="opacity:.1;fill:#0046a0"/><path d="M120.062 330.476c-1.938-2.175-3.025-4.435-3.898-6.716a28.7 28.7 0 0 1-1.583-6.947 28.2 28.2 0 0 1 .171-7.121c.403-2.408 1.027-4.838 2.508-7.354 1.948 2.174 3.038 4.434 3.909 6.715a28.1 28.1 0 0 1 1.571 6.948 28.7 28.7 0 0 1-.182 7.122c-.405 2.409-1.025 4.839-2.496 7.353" style="fill:#6e7fdd"/><path d="M117.502 304.764c.316 1.911.565 3.828.804 5.747.241 1.918.428 3.842.644 5.762.168 1.926.362 3.848.505 5.776s.277 3.857.343 5.792c-.316-1.911-.566-3.828-.806-5.746-.239-1.918-.428-3.842-.643-5.763-.166-1.926-.362-3.848-.504-5.777-.142-1.926-.275-3.855-.343-5.791" style="fill:#0046a0"/><path d="M121.17 309.054c-.87-2.281-1.961-4.541-3.909-6.715q-.288.492-.535.979c1.078 1.584 1.819 3.202 2.44 4.831a28.2 28.2 0 0 1 1.572 6.948 28.7 28.7 0 0 1-.182 7.122c-.353 2.091-.868 4.199-1.961 6.364.431.637.911 1.269 1.467 1.893 1.471-2.514 2.091-4.944 2.497-7.353.363-2.404.414-4.777.182-7.122a28.2 28.2 0 0 0-1.571-6.947" style="opacity:.1;fill:#0046a0"/><path d="M119.811 330.028c-2.482 1.526-4.897 2.198-7.296 2.657a28.7 28.7 0 0 1-7.117.338 28.2 28.2 0 0 1-6.98-1.419c-2.3-.82-4.583-1.861-6.799-3.761 2.482-1.536 4.898-2.212 7.297-2.668a28.2 28.2 0 0 1 7.116-.327c2.349.184 4.677.651 6.979 1.431 2.3.821 4.583 1.859 6.8 3.749" style="fill:#6e7fdd"/><path d="M94.049 328.03c1.937.025 3.868.116 5.799.218 1.931.1 3.857.254 5.786.378 1.925.173 3.852.32 5.775.517 1.923.198 3.845.405 5.763.68-1.937-.024-3.868-.116-5.799-.217s-3.857-.253-5.786-.379c-1.925-.175-3.852-.319-5.775-.518-1.923-.198-3.846-.405-5.763-.679" style="fill:#0046a0"/><path d="M98.916 325.174c-2.399.456-4.815 1.132-7.297 2.668q.433.37.87.699c1.749-.783 3.472-1.228 5.185-1.554a28.2 28.2 0 0 1 7.116-.327c2.349.184 4.676.651 6.979 1.431 1.997.715 3.981 1.592 5.921 3.048a18 18 0 0 0 2.121-1.112c-2.217-1.89-4.5-2.927-6.8-3.75a28.6 28.6 0 0 0-6.979-1.431 28.3 28.3 0 0 0-7.116.328" style="opacity:.1;fill:#0046a0"/><path d="M133.448 342.106c-2.26-1.839-3.692-3.897-4.917-6.01a28.6 28.6 0 0 1-2.668-6.606 28.2 28.2 0 0 1-.965-7.058c.015-2.442.244-4.94 1.305-7.659 2.269 1.836 3.705 3.893 4.928 6.007a28.2 28.2 0 0 1 2.658 6.609c.602 2.278.93 4.629.954 7.06-.018 2.443-.243 4.94-1.295 7.657" style="fill:#6e7fdd"/><path d="M126.827 317.129c.616 1.836 1.167 3.69 1.709 5.545.543 1.855 1.034 3.725 1.554 5.586.472 1.874.97 3.742 1.419 5.622.448 1.881.887 3.764 1.261 5.664-.617-1.836-1.168-3.689-1.71-5.545s-1.035-3.725-1.553-5.587c-.471-1.875-.97-3.742-1.417-5.622-.449-1.879-.888-3.762-1.263-5.663" style="fill:#0046a0"/><path d="M131.131 320.78c-1.222-2.114-2.659-4.171-4.928-6.007q-.206.531-.373 1.052c1.317 1.392 2.305 2.871 3.179 4.381a28.2 28.2 0 0 1 2.658 6.609c.602 2.278.93 4.629.954 7.06-.015 2.121-.189 4.284-.923 6.595.527.56 1.101 1.107 1.75 1.635 1.052-2.717 1.277-5.214 1.295-7.656a28.6 28.6 0 0 0-.954-7.06 28.3 28.3 0 0 0-2.658-6.609" style="opacity:.1;fill:#0046a0"/><path d="M133.128 341.703c-2.207 1.901-4.485 2.95-6.78 3.785a28.7 28.7 0 0 1-6.972 1.466 28.2 28.2 0 0 1-7.117-.29c-2.401-.443-4.82-1.108-7.311-2.631 2.206-1.911 4.484-2.964 6.779-3.796a28.2 28.2 0 0 1 6.973-1.455 28.7 28.7 0 0 1 7.118.301c2.401.447 4.82 1.107 7.31 2.62" style="fill:#6e7fdd"/><path d="M107.377 343.832c1.916-.283 3.837-.501 5.759-.708 1.922-.209 3.848-.364 5.772-.548 1.928-.136 3.854-.297 5.784-.409s3.861-.212 5.797-.246c-1.916.284-3.837.502-5.759.709s-3.848.364-5.772.547c-1.928.134-3.854.298-5.784.408-1.93.111-3.861.212-5.797.247" style="fill:#0046a0"/><path d="M111.727 340.237c-2.296.832-4.573 1.885-6.779 3.796q.487.297.97.552c1.602-1.052 3.232-1.765 4.871-2.359a28.2 28.2 0 0 1 6.973-1.455 28.7 28.7 0 0 1 7.118.301c2.085.387 4.184.938 6.331 2.067.644-.42 1.284-.889 1.917-1.435-2.49-1.513-4.909-2.173-7.31-2.62a28.7 28.7 0 0 0-7.118-.301 28.2 28.2 0 0 0-6.973 1.454" style="opacity:.1;fill:#0046a0"/><path d="M150.153 351.748c-2.57-1.372-4.371-3.117-5.978-4.956a28.7 28.7 0 0 1-3.885-5.972 28.2 28.2 0 0 1-2.299-6.742c-.454-2.399-.708-4.895-.187-7.767 2.579 1.367 4.383 3.111 5.988 4.951a28.2 28.2 0 0 1 3.875 5.977 28.7 28.7 0 0 1 2.29 6.747c.45 2.4.708 4.894.196 7.762" style="fill:#6e7fdd"/><path d="M138.868 328.504c.956 1.684 1.853 3.397 2.74 5.115.889 1.717 1.729 3.458 2.596 5.185.823 1.749 1.669 3.487 2.47 5.246.8 1.76 1.592 3.524 2.323 5.317-.957-1.684-1.853-3.397-2.741-5.114-.887-1.718-1.729-3.457-2.595-5.185-.821-1.75-1.67-3.486-2.469-5.247-.801-1.76-1.592-3.524-2.324-5.317" style="fill:#0046a0"/><path d="M143.791 331.262c-1.605-1.84-3.409-3.584-5.988-4.951q-.1.56-.164 1.104c1.56 1.114 2.813 2.376 3.959 3.691a28.2 28.2 0 0 1 3.875 5.977 28.7 28.7 0 0 1 2.29 6.746c.392 2.085.636 4.241.359 6.65.624.449 1.293.876 2.031 1.27.512-2.868.254-5.362-.197-7.763a28.6 28.6 0 0 0-2.29-6.747 28.2 28.2 0 0 0-3.875-5.977" style="opacity:.1;fill:#0046a0"/><path d="M149.762 351.414c-1.802 2.289-3.836 3.755-5.929 5.014a28.7 28.7 0 0 1-6.562 2.776 28.2 28.2 0 0 1-7.041 1.079c-2.442.025-4.943-.163-7.68-1.181 1.799-2.299 3.832-3.768 5.926-5.025a28.2 28.2 0 0 1 6.565-2.765 28.7 28.7 0 0 1 7.044-1.069c2.443-.021 4.944.163 7.677 1.171" style="fill:#6e7fdd"/><path d="M124.897 358.44c1.826-.645 3.67-1.227 5.517-1.799 1.846-.573 3.707-1.094 5.56-1.644 1.866-.503 3.725-1.031 5.598-1.51s3.749-.948 5.643-1.353c-1.826.646-3.67 1.228-5.516 1.8s-3.707 1.095-5.561 1.643c-1.867.501-3.725 1.031-5.599 1.509-1.873.479-3.749.948-5.642 1.354" style="fill:#0046a0"/><path d="M128.477 354.078c-2.094 1.257-4.127 2.726-5.926 5.025q.534.198 1.058.355c1.37-1.339 2.833-2.352 4.329-3.249a28.2 28.2 0 0 1 6.565-2.765 28.7 28.7 0 0 1 7.044-1.069c2.121-.019 4.286.119 6.609.815a18 18 0 0 0 1.607-1.776c-2.733-1.008-5.234-1.192-7.676-1.17-2.431.064-4.776.43-7.044 1.069a28.1 28.1 0 0 0-6.566 2.765" style="opacity:.1;fill:#0046a0"/><path d="M165.91 357.638c-2.665-1.175-4.592-2.781-6.332-4.495a28.6 28.6 0 0 1-4.321-5.664 28.2 28.2 0 0 1-2.798-6.551c-.632-2.359-1.072-4.828-.768-7.732 2.674 1.17 4.604 2.774 6.342 4.489a28.2 28.2 0 0 1 4.312 5.67 28.7 28.7 0 0 1 2.788 6.556c.629 2.361 1.073 4.829.777 7.727" style="fill:#6e7fdd"/><path d="M152.917 335.304c1.079 1.608 2.102 3.249 3.116 4.895s1.983 3.318 2.977 4.976c.951 1.682 1.925 3.352 2.856 5.046s1.851 3.395 2.715 5.128c-1.08-1.607-2.103-3.249-3.117-4.895s-1.983-3.318-2.975-4.977c-.95-1.683-1.926-3.352-2.855-5.047-.931-1.693-1.853-3.393-2.717-5.126" style="fill:#0046a0"/><path d="M158.033 337.686c-1.738-1.715-3.668-3.319-6.342-4.489q-.058.567-.081 1.113c1.639.994 2.983 2.159 4.225 3.384a28.2 28.2 0 0 1 4.312 5.67 28.7 28.7 0 0 1 2.788 6.556c.547 2.049.952 4.181.856 6.604a18 18 0 0 0 2.12 1.114c.296-2.898-.148-5.366-.778-7.726a28.7 28.7 0 0 0-2.788-6.556 28.2 28.2 0 0 0-4.312-5.67" style="opacity:.1;fill:#0046a0"/><path d="M165.496 357.334c-1.625 2.418-3.544 4.032-5.537 5.444a28.7 28.7 0 0 1-6.335 3.259 28.2 28.2 0 0 1-6.94 1.603c-2.433.208-4.942.207-7.746-.602 1.622-2.427 3.54-4.045 5.533-5.454a28.2 28.2 0 0 1 6.339-3.249 28.7 28.7 0 0 1 6.944-1.593c2.433-.205 4.941-.208 7.742.592" style="fill:#6e7fdd"/><path d="M141.226 366.202c1.773-.78 3.568-1.498 5.367-2.207 1.798-.71 3.615-1.369 5.422-2.056 1.823-.641 3.638-1.307 5.47-1.925s3.667-1.226 5.526-1.772c-1.772.781-3.567 1.499-5.366 2.208-1.799.708-3.615 1.37-5.422 2.055-1.824.639-3.638 1.307-5.47 1.924-1.833.618-3.669 1.227-5.527 1.773" style="fill:#0046a0"/><path d="M144.47 361.584c-1.994 1.41-3.911 3.028-5.533 5.454q.548.157 1.081.275c1.266-1.438 2.65-2.557 4.074-3.564a28.2 28.2 0 0 1 6.339-3.249 28.7 28.7 0 0 1 6.944-1.593c2.113-.178 4.283-.202 6.652.318a18 18 0 0 0 1.469-1.891c-2.801-.8-5.309-.797-7.742-.592-2.419.246-4.73.786-6.944 1.593a28.2 28.2 0 0 0-6.34 3.249" style="opacity:.1;fill:#0046a0"/><path d="M186.075 360.244c-2.855-.578-5.08-1.734-7.147-3.036a28.7 28.7 0 0 1-5.433-4.609 28.2 28.2 0 0 1-4.134-5.801c-1.122-2.169-2.08-4.487-2.404-7.388 2.863.571 5.09 1.725 7.155 3.028a28.2 28.2 0 0 1 5.425 4.617 28.6 28.6 0 0 1 4.126 5.808c1.119 2.171 2.081 4.486 2.412 7.381" style="fill:#6e7fdd"/><path d="M168.604 341.206c1.398 1.34 2.748 2.724 4.091 4.116 1.343 1.39 2.647 2.817 3.972 4.224 1.289 1.44 2.598 2.862 3.869 4.319s2.535 2.92 3.749 4.429c-1.399-1.339-2.749-2.724-4.091-4.115s-2.647-2.817-3.971-4.225c-1.288-1.441-2.598-2.862-3.868-4.32-1.272-1.456-2.536-2.92-3.751-4.428" style="fill:#0046a0"/><path d="M174.112 342.438c-2.065-1.303-4.293-2.457-7.155-3.028q.064.566.159 1.104c1.813.62 3.376 1.471 4.851 2.402a28.2 28.2 0 0 1 5.425 4.616 28.6 28.6 0 0 1 4.126 5.808c.972 1.885 1.824 3.881 2.249 6.268.727.251 1.49.469 2.309.635-.331-2.894-1.292-5.21-2.412-7.381a28.7 28.7 0 0 0-4.126-5.808 28.3 28.3 0 0 0-5.426-4.616" style="opacity:.1;fill:#0046a0"/><path d="M185.604 360.036c-1.07 2.709-2.6 4.697-4.244 6.502a28.7 28.7 0 0 1-5.492 4.539 28.2 28.2 0 0 1-6.437 3.051c-2.332.723-4.783 1.26-7.696 1.069 1.065-2.718 2.592-4.708 4.238-6.512a28.2 28.2 0 0 1 5.498-4.529 28.7 28.7 0 0 1 6.442-3.042c2.335-.721 4.784-1.261 7.691-1.078" style="fill:#6e7fdd"/><path d="M163.794 373.889c1.565-1.141 3.165-2.227 4.77-3.304 1.605-1.078 3.238-2.111 4.856-3.168 1.644-1.016 3.274-2.054 4.931-3.05 1.658-.995 3.32-1.982 5.019-2.913-1.564 1.142-3.164 2.228-4.77 3.305s-3.238 2.111-4.857 3.167c-1.645 1.015-3.274 2.055-4.932 3.049-1.657.996-3.319 1.983-5.017 2.914" style="fill:#0046a0"/><path d="M165.974 368.685c-1.646 1.803-3.173 3.794-4.238 6.512q.57.036 1.115.038c.929-1.676 2.041-3.065 3.217-4.353a28.2 28.2 0 0 1 5.497-4.529 28.7 28.7 0 0 1 6.443-3.042c2.026-.626 4.141-1.114 6.566-1.112.375-.671.723-1.384 1.031-2.162-2.908-.183-5.356.357-7.69 1.078a28.7 28.7 0 0 0-6.442 3.042 28 28 0 0 0-5.499 4.528" style="opacity:.1;fill:#0046a0"/><path d="M416.53 365.924c-1.979 2.04-4.186 3.886-6.395 5.666-5.528 4.456-11.48 8.385-17.721 11.767-8.527 4.621-17.64 8.169-27.101 10.329-11.309 2.582-23.059 3.076-34.534 1.352-14.199-2.134-27.685-7.598-39.888-15.081a139 139 0 0 1-5.242-3.385c-.536-.363.101-1.143.635-.782 12.229 8.281 25.852 14.637 40.392 17.513a92.1 92.1 0 0 0 34.892.139c9.65-1.818 18.988-5.142 27.737-9.584a116.5 116.5 0 0 0 18.705-11.87c2.672-2.077 5.24-4.434 7.636-6.596.036-.032.068-.069.102-.103.448-.461 1.235.169.782.635" style="fill:#6e7fdd"/><path d="M408.287 373.043c2.861-.546 5.099-1.678 7.18-2.957a28.7 28.7 0 0 0 5.483-4.549 28.2 28.2 0 0 0 4.198-5.755c1.146-2.156 2.13-4.464 2.485-7.361-2.869.54-5.109 1.669-7.188 2.949a28.2 28.2 0 0 0-5.475 4.556 28.7 28.7 0 0 0-4.19 5.762c-1.143 2.159-2.13 4.464-2.493 7.355" style="fill:#6e7fdd"/><path d="M425.966 354.199c-1.413 1.324-2.778 2.694-4.136 4.07-1.359 1.375-2.678 2.788-4.018 4.18-1.305 1.426-2.629 2.833-3.917 4.276s-2.567 2.892-3.798 4.387c1.414-1.324 2.779-2.693 4.137-4.069 1.358-1.377 2.678-2.788 4.018-4.181 1.304-1.427 2.63-2.833 3.916-4.277 1.287-1.442 2.567-2.891 3.798-4.386" style="fill:#0046a0"/><path d="M420.446 355.371c2.079-1.281 4.319-2.41 7.188-2.949q-.07.566-.171 1.103c-1.82.6-3.392 1.434-4.877 2.348a28.2 28.2 0 0 0-5.475 4.556 28.7 28.7 0 0 0-4.19 5.762c-.993 1.874-1.867 3.86-2.318 6.243-.73.243-1.495.452-2.316.609.363-2.891 1.35-5.196 2.493-7.354a28.6 28.6 0 0 1 4.19-5.762 28.2 28.2 0 0 1 5.476-4.556" style="opacity:.1;fill:#0046a0"/><path d="M400.79 378.214c2.337-1.74 3.857-3.734 5.171-5.793a28.7 28.7 0 0 0 2.951-6.485 28.2 28.2 0 0 0 1.268-7.009c.09-2.44-.031-4.946-.974-7.708-2.346 1.737-3.87 3.73-5.182 5.789a28.2 28.2 0 0 0-2.94 6.488 28.7 28.7 0 0 0-1.257 7.013c-.088 2.441.029 4.946.963 7.705" style="fill:#6e7fdd"/><path d="M408.48 353.546c-.694 1.808-1.325 3.636-1.946 5.467-.623 1.83-1.193 3.677-1.793 5.514-.553 1.852-1.13 3.697-1.659 5.556-.529 1.86-1.048 3.722-1.504 5.604.695-1.808 1.326-3.635 1.947-5.466s1.194-3.677 1.792-5.515c.551-1.853 1.131-3.696 1.658-5.556.529-1.859 1.049-3.722 1.505-5.604" style="fill:#0046a0"/><path d="M404.024 357.008c1.312-2.059 2.836-4.052 5.182-5.789q.184.54.327 1.067c-1.376 1.334-2.427 2.77-3.364 4.24a28.2 28.2 0 0 0-2.94 6.488 28.7 28.7 0 0 0-1.257 7.013c-.076 2.12.004 4.288.638 6.629a18 18 0 0 1-1.819 1.558c-.934-2.759-1.051-5.264-.964-7.705a28.7 28.7 0 0 1 1.257-7.013 28.1 28.1 0 0 1 2.94-6.488" style="opacity:.1;fill:#0046a0"/><path d="M401.127 377.825c2.123 1.995 4.354 3.141 6.611 4.073a28.7 28.7 0 0 0 6.902 1.765c2.337.302 4.71.317 7.123.017 2.418-.34 4.864-.899 7.417-2.313-2.122-2.005-4.352-3.154-6.609-4.084a28.2 28.2 0 0 0-6.904-1.754 28.7 28.7 0 0 0-7.125-.006c-2.418.342-4.863.898-7.415 2.302" style="fill:#6e7fdd"/><path d="M426.762 381.062c-1.902-.366-3.812-.666-5.723-.956-1.911-.291-3.829-.529-5.744-.796-1.92-.219-3.837-.463-5.761-.658-1.923-.194-3.848-.378-5.781-.496 1.902.367 3.812.666 5.723.957s3.829.529 5.744.795c1.921.217 3.838.464 5.761.656 1.923.195 3.848.38 5.781.498" style="fill:#0046a0"/><path d="M422.571 377.283c2.258.93 4.487 2.08 6.609 4.084q-.5.276-.993.509c-1.555-1.12-3.153-1.903-4.765-2.567a28.2 28.2 0 0 0-6.904-1.754 28.7 28.7 0 0 0-7.125-.006c-2.1.297-4.221.757-6.414 1.792a18 18 0 0 1-1.854-1.516c2.552-1.404 4.998-1.96 7.416-2.302 2.413-.3 4.786-.288 7.125.006 2.34.288 4.643.863 6.905 1.754" style="opacity:.1;fill:#0046a0"/><path d="M385.94 385.884c2.581-1.351 4.395-3.082 6.017-4.908a28.6 28.6 0 0 0 3.932-5.941 28.2 28.2 0 0 0 2.353-6.723c.473-2.396.747-4.889.249-7.766-2.59 1.347-4.408 3.076-6.027 4.903a28.1 28.1 0 0 0-3.922 5.946 28.7 28.7 0 0 0-2.343 6.728c-.47 2.397-.748 4.889-.259 7.761" style="fill:#6e7fdd"/><path d="M397.41 362.73c-.97 1.676-1.88 3.382-2.781 5.093s-1.756 3.444-2.637 5.164c-.837 1.742-1.697 3.473-2.512 5.226-.814 1.754-1.62 3.511-2.365 5.299.97-1.676 1.88-3.382 2.782-5.092.901-1.71 1.757-3.443 2.636-5.165.835-1.743 1.697-3.473 2.51-5.227.815-1.753 1.62-3.511 2.367-5.298" style="fill:#0046a0"/><path d="M392.465 365.449c1.619-1.827 3.437-3.557 6.027-4.903q.096.561.155 1.105c-1.568 1.101-2.832 2.354-3.989 3.659a28.1 28.1 0 0 0-3.922 5.946 28.7 28.7 0 0 0-2.343 6.728c-.408 2.081-.67 4.235-.412 6.647-.628.444-1.3.866-2.041 1.253-.489-2.872-.211-5.364.259-7.761a28.7 28.7 0 0 1 2.343-6.728 28.2 28.2 0 0 1 3.923-5.946" style="opacity:.1;fill:#0046a0"/><path d="M386.334 385.553c1.784 2.303 3.806 3.786 5.889 5.061a28.7 28.7 0 0 0 6.539 2.827 28.2 28.2 0 0 0 7.032 1.135c2.441.044 4.944-.124 7.689-1.12-1.781-2.313-3.802-3.799-5.886-5.072a28.2 28.2 0 0 0-6.542-2.817 28.6 28.6 0 0 0-7.035-1.125c-2.443-.04-4.945.125-7.686 1.111" style="fill:#6e7fdd"/><path d="M411.142 392.776c-1.821-.66-3.66-1.256-5.502-1.843-1.842-.588-3.699-1.124-5.547-1.688-1.862-.518-3.717-1.06-5.586-1.554-1.869-.493-3.741-.978-5.632-1.398 1.82.661 3.66 1.257 5.502 1.844 1.842.586 3.698 1.124 5.547 1.687 1.863.516 3.717 1.061 5.586 1.553 1.87.494 3.742.978 5.632 1.399" style="fill:#0046a0"/><path d="M407.597 388.386c2.084 1.273 4.105 2.759 5.886 5.072q-.537.194-1.06.347c-1.36-1.35-2.815-2.374-4.303-3.284a28.2 28.2 0 0 0-6.542-2.817 28.7 28.7 0 0 0-7.035-1.125c-2.121-.036-4.287.085-6.616.763a18 18 0 0 1-1.592-1.789c2.741-.986 5.243-1.151 7.686-1.109 2.43.083 4.772.468 7.035 1.125a28.2 28.2 0 0 1 6.541 2.817" style="opacity:.1;fill:#0046a0"/><path d="M369.311 392.041c2.763-.923 4.83-2.343 6.722-3.888a28.6 28.6 0 0 0 4.828-5.239 28.1 28.1 0 0 0 3.393-6.263c.848-2.29 1.516-4.708 1.482-7.627-2.771.917-4.841 2.335-6.731 3.881a28.2 28.2 0 0 0-4.819 5.246 28.7 28.7 0 0 0-3.385 6.269c-.845 2.291-1.515 4.708-1.49 7.621" style="fill:#6e7fdd"/><path d="M384.321 371.008c-1.224 1.501-2.394 3.04-3.556 4.585-1.163 1.544-2.282 3.12-3.425 4.678-1.103 1.587-2.228 3.159-3.311 4.76s-2.158 3.208-3.179 4.854c1.225-1.5 2.395-3.04 3.557-4.585s2.283-3.12 3.424-4.679c1.102-1.588 2.228-3.158 3.311-4.76 1.082-1.6 2.157-3.207 3.179-4.853" style="fill:#0046a0"/><path d="M379.006 372.905c1.89-1.546 3.96-2.964 6.731-3.881q.006.57-.023 1.116c-1.724.838-3.171 1.873-4.52 2.977a28.2 28.2 0 0 0-4.819 5.246 28.7 28.7 0 0 0-3.385 6.269c-.734 1.99-1.335 4.075-1.465 6.496-.691.338-1.421.648-2.214.913-.026-2.913.645-5.329 1.491-7.621a28.6 28.6 0 0 1 3.385-6.269 28.2 28.2 0 0 1 4.819-5.246" style="opacity:.1;fill:#0046a0"/><path d="M369.753 391.777c1.394 2.558 3.155 4.343 5.008 5.934a28.7 28.7 0 0 0 6.006 3.833 28.2 28.2 0 0 0 6.762 2.241c2.403.432 4.901.665 7.769.119-1.39-2.567-3.149-4.356-5.003-5.944a28.2 28.2 0 0 0-6.011-3.823 28.6 28.6 0 0 0-6.766-2.23c-2.406-.432-4.902-.667-7.765-.13" style="fill:#6e7fdd"/><path d="M393.095 402.858c-1.692-.941-3.413-1.823-5.139-2.695-1.725-.874-3.472-1.698-5.208-2.55-1.756-.807-3.501-1.638-5.267-2.424-1.767-.785-3.538-1.561-5.337-2.276 1.692.942 3.413 1.823 5.138 2.696 1.725.872 3.472 1.699 5.208 2.549 1.757.806 3.501 1.639 5.268 2.423s3.538 1.56 5.337 2.277" style="fill:#0046a0"/><path d="M390.294 397.959c1.854 1.589 3.614 3.377 5.003 5.944q-.56.106-1.102.174c-1.128-1.55-2.401-2.792-3.725-3.927a28.2 28.2 0 0 0-6.011-3.823 28.7 28.7 0 0 0-6.766-2.23c-2.088-.373-4.246-.599-6.653-.3a18 18 0 0 1-1.287-2.02c2.863-.537 5.36-.301 7.764.129a28.7 28.7 0 0 1 6.766 2.23 28.2 28.2 0 0 1 6.011 3.823" style="opacity:.1;fill:#0046a0"/><path d="M350.278 395.166c2.889-.376 5.189-1.374 7.342-2.527a28.7 28.7 0 0 0 5.743-4.216 28.2 28.2 0 0 0 4.531-5.496c1.271-2.085 2.39-4.33 2.916-7.202-2.896.369-5.199 1.364-7.35 2.519a28.1 28.1 0 0 0-5.735 4.225 28.6 28.6 0 0 0-4.523 5.504c-1.269 2.087-2.391 4.329-2.924 7.193" style="fill:#6e7fdd"/><path d="M369.041 377.401c-1.489 1.238-2.933 2.525-4.369 3.819-1.438 1.293-2.838 2.625-4.259 3.935-1.387 1.346-2.792 2.673-4.163 4.037-1.37 1.364-2.733 2.735-4.05 4.155 1.49-1.238 2.933-2.524 4.37-3.818 1.436-1.294 2.838-2.624 4.258-3.936 1.386-1.347 2.793-2.673 4.162-4.038 1.37-1.364 2.733-2.735 4.051-4.154" style="fill:#0046a0"/><path d="M363.461 378.244c2.151-1.155 4.454-2.15 7.35-2.519a18 18 0 0 1-.236 1.091c-1.852.492-3.471 1.231-5.007 2.056a28.1 28.1 0 0 0-5.735 4.225 28.6 28.6 0 0 0-4.523 5.504c-1.102 1.812-2.092 3.743-2.683 6.095-.743.199-1.519.363-2.348.471.533-2.864 1.655-5.107 2.924-7.193a28.7 28.7 0 0 1 4.523-5.504 28 28 0 0 1 5.735-4.226" style="opacity:.1;fill:#0046a0"/><path d="M350.762 394.992c.878 2.778 2.264 4.867 3.778 6.784a28.7 28.7 0 0 0 5.16 4.913 28.2 28.2 0 0 0 6.207 3.495c2.276.885 4.683 1.592 7.602 1.606-.872-2.786-2.256-4.879-3.771-6.793a28.2 28.2 0 0 0-5.167-4.904 28.7 28.7 0 0 0-6.213-3.486c-2.278-.884-4.683-1.594-7.596-1.615" style="fill:#6e7fdd"/><path d="M371.547 410.341c-1.481-1.248-3.001-2.443-4.527-3.63-1.525-1.188-3.083-2.332-4.622-3.501-1.569-1.129-3.122-2.279-4.705-3.389s-3.173-2.21-4.802-3.258c1.48 1.249 3 2.444 4.526 3.631s3.082 2.333 4.623 3.5c1.57 1.128 3.122 2.28 4.706 3.388 1.583 1.11 3.173 2.211 4.801 3.259" style="fill:#0046a0"/><path d="M369.737 404.996c1.516 1.915 2.899 4.007 3.771 6.793q-.57-.004-1.115-.041c-.81-1.737-1.821-3.201-2.904-4.568a28.3 28.3 0 0 0-5.166-4.904 28.7 28.7 0 0 0-6.213-3.486c-1.978-.767-4.052-1.402-6.472-1.57a18 18 0 0 1-.876-2.229c2.913.022 5.318.732 7.595 1.615a28.7 28.7 0 0 1 6.213 3.486 28.2 28.2 0 0 1 5.167 4.904" style="opacity:.1;fill:#0046a0"/><path d="M333.456 395.116c2.909-.159 5.278-.981 7.511-1.97a28.7 28.7 0 0 0 6.043-3.775 28.2 28.2 0 0 0 4.93-5.142c1.424-1.984 2.707-4.139 3.447-6.963-2.915.151-5.286.97-7.518 1.962a28.2 28.2 0 0 0-6.035 3.783 28.7 28.7 0 0 0-4.923 5.15c-1.423 1.986-2.709 4.139-3.455 6.955" style="fill:#6e7fdd"/><path d="M353.496 378.805c-1.578 1.123-3.113 2.298-4.643 3.481-1.53 1.181-3.026 2.405-4.541 3.605-1.484 1.238-2.984 2.457-4.453 3.714-1.468 1.258-2.93 2.523-4.35 3.84 1.578-1.123 3.114-2.298 4.643-3.48 1.529-1.183 3.027-2.405 4.541-3.606 1.483-1.24 2.985-2.456 4.452-3.715 1.468-1.257 2.93-2.522 4.351-3.839" style="fill:#0046a0"/><path d="M347.868 379.228c2.232-.991 4.603-1.811 7.518-1.962q-.145.55-.317 1.07c-1.884.352-3.553.967-5.147 1.675a28.2 28.2 0 0 0-6.035 3.783 28.7 28.7 0 0 0-4.923 5.15c-1.235 1.724-2.366 3.576-3.132 5.877a18 18 0 0 1-2.377.294c.746-2.816 2.032-4.969 3.454-6.954a28.7 28.7 0 0 1 4.923-5.15 28.2 28.2 0 0 1 6.036-3.783" style="opacity:.1;fill:#0046a0"/><path d="M333.951 394.978c.667 2.836 1.893 5.023 3.259 7.048a28.6 28.6 0 0 0 4.777 5.285 28.2 28.2 0 0 0 5.928 3.95c2.203 1.053 4.55 1.938 7.46 2.17-.661-2.843-1.884-5.034-3.252-7.056a28.2 28.2 0 0 0-4.785-5.277 28.7 28.7 0 0 0-5.935-3.942c-2.204-1.05-4.549-1.938-7.452-2.178" style="fill:#6e7fdd"/><path d="M353.529 411.841c-1.383-1.356-2.81-2.661-4.242-3.959s-2.899-2.557-4.347-3.837c-1.48-1.243-2.943-2.507-4.438-3.731-1.496-1.224-2.998-2.442-4.545-3.608 1.382 1.356 2.809 2.662 4.241 3.96 1.433 1.298 2.899 2.557 4.348 3.836 1.481 1.242 2.942 2.507 4.439 3.731s2.998 2.441 4.544 3.608" style="fill:#0046a0"/><path d="M352.124 406.375c1.368 2.023 2.591 4.213 3.252 7.056q-.568-.046-1.109-.124c-.677-1.793-1.576-3.328-2.553-4.773a28.2 28.2 0 0 0-4.785-5.277 28.6 28.6 0 0 0-5.935-3.941c-1.915-.913-3.936-1.701-6.336-2.05a18 18 0 0 1-.707-2.288c2.903.24 5.248 1.128 7.453 2.179a28.6 28.6 0 0 1 5.935 3.941 28.2 28.2 0 0 1 4.785 5.277" style="opacity:.1;fill:#0046a0"/><path d="M313.669 390.437c2.875.467 5.366.17 7.759-.318a28.6 28.6 0 0 0 6.71-2.395 28.1 28.1 0 0 0 5.915-3.968c1.815-1.633 3.53-3.464 4.857-6.065-2.88-.476-5.372-.183-7.763.308a28.2 28.2 0 0 0-6.705 2.405 28.6 28.6 0 0 0-5.91 3.978c-1.814 1.636-3.531 3.464-4.863 6.055" style="fill:#6e7fdd"/><path d="M336.735 378.79c-1.781.76-3.533 1.579-5.28 2.407-1.748.827-3.471 1.702-5.207 2.551-1.715.892-3.441 1.761-5.144 2.675-1.703.915-3.402 1.838-5.071 2.821 1.782-.759 3.533-1.578 5.28-2.406s3.471-1.701 5.207-2.551c1.714-.894 3.441-1.761 5.144-2.676s3.402-1.838 5.071-2.821" style="fill:#0046a0"/><path d="M331.147 378c2.392-.491 4.883-.784 7.763-.308q-.26.507-.538.977c-1.915-.059-3.678.185-5.386.535a28.1 28.1 0 0 0-6.705 2.405 28.7 28.7 0 0 0-5.911 3.978c-1.575 1.421-3.076 2.987-4.316 5.071a18 18 0 0 1-2.385-.221c1.331-2.591 3.048-4.419 4.862-6.054a28.7 28.7 0 0 1 5.91-3.978 28.2 28.2 0 0 1 6.706-2.405" style="opacity:.1;fill:#0046a0"/><path d="M314.183 390.408c.045 2.913.775 5.312 1.676 7.582a28.7 28.7 0 0 0 3.536 6.185 28.2 28.2 0 0 0 4.946 5.126c1.927 1.5 4.031 2.867 6.823 3.716-.038-2.919-.764-5.32-1.667-7.589a28.2 28.2 0 0 0-3.545-6.178 28.7 28.7 0 0 0-4.954-5.12c-1.929-1.497-4.03-2.866-6.815-3.722" style="fill:#6e7fdd"/><path d="M329.701 411.069c-1.061-1.62-2.175-3.201-3.297-4.775-1.121-1.575-2.285-3.118-3.426-4.678-1.18-1.531-2.338-3.078-3.538-4.594s-2.407-3.026-3.668-4.496c1.06 1.621 2.174 3.201 3.296 4.776s2.285 3.118 3.427 4.678c1.181 1.53 2.338 3.078 3.538 4.594 1.2 1.514 2.407 3.024 3.668 4.495" style="fill:#0046a0"/><path d="M329.497 405.429c.904 2.268 1.63 4.67 1.667 7.589a19 19 0 0 1-1.057-.358c-.278-1.896-.828-3.588-1.473-5.208a28.2 28.2 0 0 0-3.545-6.178 28.7 28.7 0 0 0-4.954-5.12c-1.675-1.301-3.481-2.504-5.751-3.358a18 18 0 0 1-.201-2.386c2.785.855 4.886 2.224 6.814 3.723a28.6 28.6 0 0 1 4.954 5.12 28 28 0 0 1 3.546 6.176" style="opacity:.1;fill:#0046a0"/><path d="M338.29 405.514c0 7.802-6.383 14.185-14.185 14.185H164.414c-7.802 0-14.185-6.383-14.185-14.185V123.808c0-7.802 6.383-14.185 14.185-14.185h159.691c7.802 0 14.185 6.383 14.185 14.185z" style="fill:#6e7fdd"/><path d="M281.599 120.945c-1.585 5.572-17.691 9.951-37.339 9.951s-35.755-4.379-37.34-9.951h-42.506v267.238h159.691V120.945z" style="fill:#c2cef2"/><path d="M303.434 168.76H184.48a3.355 3.355 0 0 0-3.345 3.345v42.063l13.336-7.259h108.962a3.355 3.355 0 0 0 3.345-3.345v-31.459a3.355 3.355 0 0 0-3.344-3.345" style="fill:#b0c1ea"/><path d="M191.883 176.684h104.149v1.115H191.883zM191.883 187.832h104.149v1.115H191.883zM191.883 198.981h74.011v1.115h-74.011z" style="fill:#d2ddf9"/><circle cx="192.754" cy="152.578" r="11.352" style="fill:#b0c1ea"/><defs><circle id="a" cx="192.754" cy="152.578" r="11.352"/></defs><clipPath id="b"><use xlink:href="#a" style="overflow:visible"/></clipPath><g style="clip-path:url(#b)"><circle cx="192.754" cy="150.804" r="3.104" style="fill:#d2ddf9"/><path d="M192.754 155.061a6.297 6.297 0 1 0 0 12.593 6.297 6.297 0 0 0 0-12.593" style="fill:#d2ddf9"/></g><path d="M184.48 246.803h118.953a3.355 3.355 0 0 1 3.345 3.345v42.063l-13.336-7.259H184.48a3.355 3.355 0 0 1-3.345-3.345v-31.459a3.356 3.356 0 0 1 3.345-3.345" style="fill:#b0c1ea"/><path d="M191.883 254.726h104.149v1.115H191.883zM191.883 265.875h104.149v1.115H191.883zM222.021 277.024h74.011v1.115h-74.011z" style="fill:#d2ddf9"/><circle cx="296.031" cy="229.784" r="11.352" style="fill:#b0c1ea"/><defs><circle id="c" cx="296.031" cy="229.784" r="11.352"/></defs><clipPath id="d"><use xlink:href="#c" style="overflow:visible"/></clipPath><g style="clip-path:url(#d)"><path d="M296.031 231.115a3.104 3.104 0 1 0 0-6.209 3.104 3.104 0 0 0 0 6.209M296.031 232.268a6.297 6.297 0 1 0 0 12.593 6.297 6.297 0 0 0 0-12.593" style="fill:#d2ddf9"/></g><path d="M303.434 327.075H184.48a3.355 3.355 0 0 0-3.345 3.345v42.063l13.336-7.259h108.962a3.355 3.355 0 0 0 3.345-3.345V330.42a3.354 3.354 0 0 0-3.344-3.345" style="fill:#b0c1ea"/><path d="M191.883 334.998h104.149v1.115H191.883zM191.883 346.147h104.149v1.115H191.883zM191.883 357.296h74.011v1.115h-74.011z" style="fill:#d2ddf9"/><circle cx="192.754" cy="309.397" r="11.352" style="fill:#b0c1ea"/><defs><circle id="e" cx="192.754" cy="309.397" r="11.352"/></defs><clipPath id="f"><use xlink:href="#e" style="overflow:visible"/></clipPath><g style="clip-path:url(#f)"><path d="M192.754 310.728a3.104 3.104 0 1 0 0-6.209 3.104 3.104 0 0 0 0 6.209M192.754 311.881a6.297 6.297 0 1 0 0 12.593 6.297 6.297 0 0 0 0-12.593" style="fill:#d2ddf9"/></g><path d="m295.287 229.203-15.026-15.027-36.002 36-36.001-36-15.027 15.027 36.002 35.999-36.002 36 15.027 15.026 36.001-35.999 36.002 35.999 15.026-15.026-36.001-36z" style="fill:#6e7fdd"/><path d="M284.683 91.586h132.602v99.931H284.683z" style="fill:#f2f2f2"/><path d="M292.441 97.882h117.087v15.965H292.441z" style="fill:#d2ddf7"/><path d="m405.713 101.468-1.771-1.771-4.244 4.243-4.244-4.243-1.771 1.771 4.244 4.244-4.244 4.243 1.771 1.772 4.244-4.244 4.244 4.244 1.771-1.772-4.243-4.243z" style="fill:#f2f2f2"/><path d="M350.595 173.202h-.061c-8.845-.04-17.002-1.358-24.946-4.031-4.122-1.362-8.326-3.225-12.488-5.535-1.867-1.073-4.049-2.373-6.278-3.989-2.101-1.464-4.229-3.232-6.294-5.236l-1.422-1.379 1.422-1.379c2.067-2.004 4.194-3.772 6.324-5.256 2.2-1.595 4.383-2.895 6.224-3.953 4.187-2.324 8.391-4.188 12.522-5.553 7.933-2.669 16.091-3.987 24.929-4.028h.061c8.759 0 16.899 1.301 24.891 3.978 4.138 1.366 8.343 3.233 12.493 5.544 1.877 1.085 4.067 2.396 6.279 4.006 2.094 1.464 4.221 3.243 6.294 5.265l1.41 1.375-1.41 1.375c-2.071 2.022-4.199 3.801-6.323 5.287-2.183 1.59-4.373 2.9-6.224 3.971-4.178 2.327-8.383 4.193-12.527 5.561-7.982 2.675-16.122 3.977-24.876 3.977" style="fill:#6e7fdd"/><path d="M359.715 154.834c-6.067 0-10.985-4.918-10.985-10.985 0-1.514.306-2.956.861-4.269-7.016.485-12.56 6.314-12.56 13.453 0 7.456 6.044 13.5 13.501 13.5 7.139 0 12.968-5.545 13.453-12.56a11 11 0 0 1-4.27.861" style="fill:#ffcf74"/><path d="M317.02 151.477h67.02v3.112h-67.02z" style="fill:#eb725f" transform="rotate(-45.001 350.542 153.038)"/><path d="M162.049 212.002c-25.197 0-45.697 20.499-45.697 45.696s20.499 45.697 45.697 45.697c25.197 0 45.697-20.5 45.697-45.697s-20.499-45.696-45.697-45.696" style="fill:#ffcf74"/><path d="M162.049 226.106c-17.42 0-31.593 14.172-31.593 31.592s14.172 31.593 31.593 31.593 31.593-14.173 31.593-31.593c.001-17.42-14.172-31.592-31.593-31.592m0 5.957a25.5 25.5 0 0 1 15.885 5.537l-35.983 35.983a25.5 25.5 0 0 1-5.537-15.885c0-14.135 11.5-25.635 25.635-25.635m0 51.271a25.5 25.5 0 0 1-15.886-5.538l35.984-35.984a25.5 25.5 0 0 1 5.538 15.886c0 14.136-11.5 25.636-25.636 25.636" style="fill:#fff"/><path d="M154.738 168.838h-4.37a20 20 0 0 0-.352-1.368l3.781-2.166a4.075 4.075 0 0 0 1.506-5.545l-.457-.798a4.075 4.075 0 0 0-5.545-1.506l-3.8 2.177a20 20 0 0 0-1.139-1.139l2.177-3.801a4.073 4.073 0 0 0-1.506-5.544l-.798-.457a4.073 4.073 0 0 0-5.544 1.506l-2.166 3.781a21 21 0 0 0-1.367-.352v-4.37a4.075 4.075 0 0 0-4.063-4.063h-.92a4.075 4.075 0 0 0-4.063 4.063v4.37c-.461.105-.919.216-1.368.352l-2.166-3.781a4.074 4.074 0 0 0-5.544-1.506l-.799.457a4.074 4.074 0 0 0-1.506 5.544l2.177 3.801q-.592.547-1.139 1.139l-3.801-2.177a4.073 4.073 0 0 0-5.544 1.506l-.457.798a4.075 4.075 0 0 0 1.506 5.545l3.782 2.166c-.136.448-.247.907-.352 1.367h-4.37a4.075 4.075 0 0 0-4.063 4.063v.92a4.075 4.075 0 0 0 4.063 4.063h4.37c.105.461.216.919.352 1.368l-3.782 2.166a4.075 4.075 0 0 0-1.506 5.545l.457.798a4.074 4.074 0 0 0 5.544 1.506l3.801-2.177q.547.592 1.139 1.139l-2.177 3.801a4.075 4.075 0 0 0 1.506 5.545l.799.457a4.073 4.073 0 0 0 5.544-1.506l2.166-3.782c.448.136.907.246 1.368.352v4.37a4.075 4.075 0 0 0 4.063 4.063h.92a4.075 4.075 0 0 0 4.063-4.063v-4.37c.461-.105.919-.216 1.367-.352l2.166 3.782a4.074 4.074 0 0 0 5.544 1.506l.798-.457a4.075 4.075 0 0 0 1.506-5.545l-2.177-3.801q.592-.547 1.139-1.139l3.801 2.177a4.075 4.075 0 0 0 5.545-1.506l.457-.798a4.075 4.075 0 0 0-1.506-5.545l-3.782-2.166c.136-.448.247-.907.352-1.368h4.37a4.075 4.075 0 0 0 4.063-4.063v-.92a4.076 4.076 0 0 0-4.063-4.062m-24.104 18.467c-7.701 0-13.945-6.243-13.945-13.945 0-7.701 6.243-13.944 13.945-13.944 7.701 0 13.945 6.243 13.945 13.944-.001 7.702-6.244 13.945-13.945 13.945" style="fill:#f9ab43"/><path d="m121.574 120.895-2.887.656c-.139-.289-.28-.575-.438-.851l2.173-1.999a2.76 2.76 0 0 0 .163-3.889l-.422-.459a2.76 2.76 0 0 0-3.889-.163l-2.184 2.009q-.45-.31-.923-.581l.868-2.838a2.76 2.76 0 0 0-1.827-3.437l-.596-.182a2.76 2.76 0 0 0-3.437 1.827l-.864 2.824a13 13 0 0 0-.956-.027l-.656-2.887a2.76 2.76 0 0 0-3.294-2.074l-.608.138a2.76 2.76 0 0 0-2.074 3.294l.656 2.887c-.289.139-.575.281-.851.438l-1.999-2.173a2.76 2.76 0 0 0-3.889-.163l-.459.422a2.76 2.76 0 0 0-.163 3.889l2.009 2.184q-.31.45-.581.923l-2.838-.868a2.76 2.76 0 0 0-3.437 1.827l-.182.596a2.76 2.76 0 0 0 1.827 3.437l2.824.864a13 13 0 0 0-.027.956l-2.887.656a2.76 2.76 0 0 0-2.074 3.294l.138.608a2.76 2.76 0 0 0 3.294 2.074l2.887-.656c.139.289.28.575.438.851l-2.173 1.999a2.76 2.76 0 0 0-.163 3.889l.422.459a2.76 2.76 0 0 0 3.889.163l2.184-2.009q.45.31.923.581l-.868 2.838a2.76 2.76 0 0 0 1.827 3.437l.596.182a2.76 2.76 0 0 0 3.437-1.827l.864-2.824c.316.023.636.027.956.027l.656 2.887a2.76 2.76 0 0 0 3.294 2.074l.608-.138a2.76 2.76 0 0 0 2.074-3.294l-.656-2.887c.289-.139.575-.281.851-.438l1.999 2.173a2.76 2.76 0 0 0 3.889.163l.459-.422a2.76 2.76 0 0 0 .163-3.889l-2.009-2.184q.31-.45.581-.923l2.838.868a2.76 2.76 0 0 0 3.437-1.827l.182-.596a2.76 2.76 0 0 0-1.827-3.437l-2.824-.864a13 13 0 0 0 .027-.956l2.887-.656a2.76 2.76 0 0 0 2.074-3.294l-.138-.608a2.76 2.76 0 0 0-3.294-2.074m-13.154 15.819a9.448 9.448 0 1 1-4.186-18.427 9.448 9.448 0 0 1 4.186 18.427M385.939 195.574l-2.837.644a14 14 0 0 0-.43-.836l2.135-1.964a2.71 2.71 0 0 0 .16-3.821l-.415-.451a2.71 2.71 0 0 0-3.821-.16l-2.146 1.973a14 14 0 0 0-.907-.571l.853-2.788a2.713 2.713 0 0 0-1.795-3.377l-.586-.179a2.713 2.713 0 0 0-3.377 1.795l-.848 2.774a14 14 0 0 0-.94-.027l-.644-2.837a2.713 2.713 0 0 0-3.236-2.038l-.597.136a2.713 2.713 0 0 0-2.038 3.236l.644 2.837c-.284.136-.565.275-.836.43l-1.964-2.135a2.71 2.71 0 0 0-3.821-.16l-.451.415a2.71 2.71 0 0 0-.16 3.821l1.974 2.146q-.303.442-.571.907l-2.788-.853a2.713 2.713 0 0 0-3.377 1.795l-.179.586a2.713 2.713 0 0 0 1.795 3.377l2.774.848a14 14 0 0 0-.027.939l-2.837.645a2.713 2.713 0 0 0-2.038 3.236l.136.597a2.713 2.713 0 0 0 3.236 2.038l2.837-.645c.136.284.275.565.43.836l-2.135 1.964a2.71 2.71 0 0 0-.16 3.821l.415.451a2.71 2.71 0 0 0 3.821.16l2.146-1.974q.442.304.907.571l-.853 2.788a2.713 2.713 0 0 0 1.795 3.377l.586.179a2.713 2.713 0 0 0 3.377-1.795l.848-2.774c.311.022.625.026.939.027l.644 2.837a2.713 2.713 0 0 0 3.236 2.038l.597-.136a2.713 2.713 0 0 0 2.038-3.236l-.644-2.837c.283-.136.565-.276.836-.43l1.964 2.135a2.71 2.71 0 0 0 3.821.16l.451-.415a2.71 2.71 0 0 0 .16-3.821l-1.973-2.146q.303-.442.571-.907l2.788.853a2.713 2.713 0 0 0 3.377-1.795l.179-.586a2.713 2.713 0 0 0-1.795-3.377l-2.774-.848c.022-.311.026-.625.027-.94l2.837-.644a2.713 2.713 0 0 0 2.038-3.236l-.136-.597a2.71 2.71 0 0 0-3.236-2.036m-12.922 15.541a9.28 9.28 0 0 1-11.107-6.995 9.28 9.28 0 0 1 6.995-11.107c4.999-1.136 9.972 1.996 11.107 6.995s-1.996 9.971-6.995 11.107" style="fill:#eb725f"/><path d="M246.539 419.699h135.37v7.702h-135.37z" style="fill:#ffcf74"/><path d="M368.918 419.699H259.53l47.282-116.592h14.824z" style="fill:#f9ab43"/><defs><path id="g" d="M368.918 419.699H259.53l47.282-116.592h14.824z"/></defs><clipPath id="h"><use xlink:href="#g" style="overflow:visible"/></clipPath><g style="clip-path:url(#h)"><path d="M239.752 376.85h148.944v27.948H239.752zM239.752 321.293h148.944v27.948H239.752z" style="fill:#ffcf74"/></g><path d="M331.764 344.816c8.808 26.774 9.614 53.388 3.815 74.883h33.339l-47.283-116.592H310.34c8.796 11.766 16.219 25.885 21.424 41.709" style="opacity:.1;fill:#0046a0"/><g style="opacity:.3"><path d="m304.76 326.486-9.2 24.198-14.682 38.616-3.394 8.927c-1.015 2.669 3.269 3.823 4.274 1.178l9.2-24.198 14.682-38.616 3.394-8.927c1.016-2.669-3.268-3.823-4.274-1.178" style="fill:#fff"/></g><path d="M110.431 422.902h79.071v4.499h-79.071z" style="fill:#ffcf74"/><path d="M181.914 422.902h-63.895l27.618-68.103h8.659z" style="fill:#f9ab43"/><defs><path id="i" d="M181.914 422.902h-63.895l27.618-68.103h8.659z"/></defs><clipPath id="j"><use xlink:href="#i" style="overflow:visible"/></clipPath><g style="clip-path:url(#j)"><path d="M106.466 397.874h87v16.324h-87zM106.466 365.422h87v16.324h-87z" style="fill:#ffcf74"/></g><path d="M160.212 379.162c5.145 15.639 5.615 31.184 2.229 43.74h19.474l-27.618-68.103h-6.598c5.136 6.873 9.472 15.12 12.513 24.363" style="opacity:.1;fill:#0046a0"/><g style="opacity:.3"><path d="m144.438 368.455-5.374 14.134-8.576 22.556-1.982 5.214c-.593 1.559 1.909 2.233 2.497.688l5.374-14.134 8.576-22.556 1.983-5.214c.592-1.558-1.91-2.233-2.498-.688" style="fill:#fff"/></g><path d="M369.14 244.886h-7.539v-7.539h-2.684v7.539h-7.538v2.683h7.538v7.538h2.684v-7.538h7.539zM415.065 320.905h-6.605V314.3h-2.35v6.605h-6.605v2.351h6.605v6.604h2.35v-6.604h6.605zM419.732 266.147h-3.771v-3.771h-1.342v3.771h-3.77v1.342h3.77v3.771h1.342v-3.771h3.771zM263.468 78.313h-3.771v-3.771h-1.342v3.771h-3.771v1.342h3.771v3.77h1.342v-3.77h3.771zM293.56 64.353h-7.539v-7.539h-2.684v7.539h-7.538v2.683h7.538v7.538h2.684v-7.538h7.539zM102.04 229.742h-6.605v-6.604h-2.35v6.604H86.48v2.351h6.605v6.604h2.35v-6.604h6.605zM75.706 171.605h-3.771v-3.77h-1.343v3.77h-3.77v1.342h3.77v3.771h1.343v-3.771h3.771zM71.264 330.856h-3.771v-3.77h-1.342v3.77H62.38v1.342h3.771v3.771h1.342v-3.771h3.771zM149.268 93.422h-6.605v-6.605h-2.351v6.605h-6.604v2.351h6.604v6.604h2.351v-6.604h6.605z" style="fill:#cad2f9"/><path d="M224.108 87.127a2.088 2.088 0 1 1-4.176 0 2.088 2.088 0 0 1 4.176 0M410.849 240.85a3.954 3.954 0 1 1-7.907 0 3.954 3.954 0 0 1 7.907 0M59.74 226.106a2.088 2.088 0 1 1-4.176 0 2.088 2.088 0 0 1 4.176 0M181.317 68.364a3.954 3.954 0 1 1-7.909 0 3.954 3.954 0 0 1 7.909 0M64.468 122.565a2.088 2.088 0 1 1-4.176 0 2.088 2.088 0 0 1 4.176 0M75.217 393.647a3.954 3.954 0 1 1-7.907 0 3.954 3.954 0 0 1 7.907 0M358.242 282.378a2.088 2.088 0 1 1-4.176 0 2.088 2.088 0 0 1 4.176 0M362.347 64.41a2.088 2.088 0 1 1-4.176 0 2.088 2.088 0 0 1 4.176 0M87.522 269.507a3.954 3.954 0 1 1-7.907 0 3.954 3.954 0 0 1 7.907 0" style="fill:#e2e6ff"/><path d="M196.366 103.392c-.462.709-.469 1.119-.444 1.191.039.045.386.265 1.233.265h42.335c.846 0 1.193-.22 1.24-.279.016-.057.01-.469-.452-1.177L219.658 71.8c-.414-.634-.913-1.013-1.335-1.013s-.921.379-1.335 1.014z" style="fill:#ffcf74"/><path d="M239.489 109.324h-42.335c-2.387 0-4.272-.954-5.173-2.617s-.669-3.763.636-5.762l20.621-31.592c1.263-1.934 3.116-3.044 5.084-3.044s3.822 1.109 5.084 3.043l20.621 31.593c1.304 1.999 1.536 4.099.636 5.762-.902 1.663-2.787 2.617-5.174 2.617m-43.123-5.932c-.462.709-.469 1.119-.444 1.191.039.045.386.265 1.233.265h42.335c.846 0 1.193-.22 1.24-.279.016-.057.01-.469-.452-1.177L219.658 71.8c-.414-.634-.913-1.013-1.335-1.013s-.921.379-1.335 1.014z" style="fill:#f9ab43"/><path d="M217.126 100.077a1.59 1.59 0 0 1-.472-1.167q0-.695.472-1.167a1.59 1.59 0 0 1 1.167-.473q.695 0 1.181.473.485.472.486 1.167 0 .695-.486 1.167a1.63 1.63 0 0 1-1.181.472 1.6 1.6 0 0 1-1.167-.472m-.972-19.367h4.334l-.805 13.865h-2.724z" style="fill:#fff"/></svg>