<?xml version="1.0" encoding="utf-8"?>
<!-- Generator: Adobe Illustrator 26.0.0, SVG Export Plug-In . SVG Version: 6.00 Build 0)  -->
<svg version="1.1" id="Слой_1" xmlns="http://www.w3.org/2000/svg" xmlns:xlink="http://www.w3.org/1999/xlink" x="0px" y="0px"
	 viewBox="0 0 400 400" style="enable-background:new 0 0 400 400;" xml:space="preserve">
<style type="text/css">
	.st0{fill:#312E81;}
	.st1{fill:#FFA800;}
	.st2{fill:#1E1B4B;}
	.st3{fill:#6366F1;}
	.st4{fill:#FFB343;}
</style>
<g>
	<polygon class="st0" points="173.6,102.22 4.99,207.87 203.95,206.08 372.56,100.43 	"/>
	<path class="st1" d="M364.78,169.96l-19.72-67.46c-0.13-0.44-0.43-0.8-0.83-1l1.05-2.06c0.96,0.49,1.69,1.37,2,2.41l19.72,67.46
		L364.78,169.96z"/>
	<path class="st0" d="M299.34,146.3l15.83,54.14c3.2,10.94-1.2,22.68-10.81,28.82l-47.78,30.6c-20.68,13.24-44.7,20.34-69.25,20.49
		l-59.13,0.32c-11.46,0.07-21.58-7.46-24.79-18.46l-16.1-55.09l116.65-1.05L299.34,146.3z"/>
	<path class="st2" d="M273.32,251.45c-0.76,0-1.51-0.38-1.95-1.06c-0.69-1.07-0.37-2.5,0.7-3.19l31.04-19.88
		c8.68-5.56,12.73-16.34,9.84-26.23c-0.36-1.22,0.34-2.51,1.57-2.86c1.23-0.36,2.5,0.34,2.86,1.57
		c3.46,11.84-1.38,24.76-11.78,31.41l-31.04,19.88C274.18,251.33,273.75,251.45,273.32,251.45z"/>
	<polygon class="st3" points="372.55,100.43 375.5,110.52 206.9,216.15 7.93,217.96 4.99,207.87 203.96,206.07 	"/>
	<path class="st4" d="M209.92,142.27c-1.12-3.83-11.34-4.21-22.82-0.85c-11.48,3.36-19.89,9.18-18.77,13.01
		c1.12,3.83,11.34,4.21,22.82,0.85C202.64,151.92,211.04,146.09,209.92,142.27z"/>
	<path class="st1" d="M186.91,147l-0.65-2.22l156.1-45.63c0.98-0.28,2.01-0.19,2.92,0.28l-1.05,2.05c-0.38-0.19-0.8-0.23-1.21-0.11
		L186.91,147z"/>
	<path class="st4" d="M390.55,214.12l-21.59,6.31c-1.76,0.51-3.56-0.7-3.73-2.53l-3.71-38.13c-0.14-1.4,0.74-2.7,2.09-3.09l7.9-2.31
		c1.35-0.39,2.79,0.23,3.43,1.48l17.41,34.12C393.17,211.61,392.31,213.6,390.55,214.12z"/>
	<path class="st0" d="M377.76,168.35c1.87,6.39-1.8,13.09-8.19,14.96c-6.39,1.87-13.09-1.8-14.96-8.19
		c-1.87-6.39,1.8-13.09,8.19-14.96C369.2,158.29,375.89,161.96,377.76,168.35z"/>
	<path class="st2" d="M59.15,209.69c-1.27,0-2.3-1.02-2.31-2.29c-0.01-1.27,1.01-2.32,2.29-2.33l117.95-1.06
		c1.23-0.09,2.32,1.01,2.33,2.29c0.01,1.27-1.01,2.32-2.29,2.33l-117.95,1.06C59.17,209.69,59.16,209.69,59.15,209.69z"/>
</g>
</svg>
